<svg width="281" height="212" viewBox="0 0 281 212" fill="none" xmlns="http://www.w3.org/2000/svg">
<path d="M68.2741 96.0157C68.2741 96.0157 63.5647 54.5517 95.6217 48.9683C127.679 43.3848 133.637 48.068 155.966 33.8907C178.294 19.7134 248.839 61.5608 234.558 120.423C232.873 127.403 230.736 134.284 228.157 141.027" stroke="#CCDDE2" stroke-width="3.7" stroke-miterlimit="10"/>
<path d="M206.527 68.5674H194.867V209.429H206.527V68.5674Z" stroke="#CCDDE2" stroke-width="3.7" stroke-miterlimit="10"/>
<path d="M102.211 176.979V68.5674H194.867V209.431H179.256V166.17C179.252 164.435 178.504 162.774 177.177 161.549C175.849 160.324 174.051 159.637 172.176 159.638H125.574C123.699 159.638 121.901 160.325 120.574 161.55C119.247 162.774 118.499 164.436 118.494 166.17V209.431H103.301M102.211 193.124V185.783M113.327 141.893C113.229 141.893 113.133 141.875 113.043 141.84C112.953 141.804 112.871 141.753 112.802 141.689C112.733 141.625 112.679 141.548 112.642 141.465C112.605 141.38 112.587 141.291 112.588 141.2V135.657C112.588 135.475 112.666 135.301 112.804 135.173C112.943 135.044 113.131 134.972 113.327 134.972H125.411C125.509 134.971 125.606 134.988 125.696 135.023C125.787 135.057 125.87 135.107 125.939 135.17C126.009 135.234 126.064 135.31 126.102 135.393C126.14 135.477 126.16 135.566 126.16 135.657V141.2C126.16 141.291 126.141 141.382 126.104 141.466C126.066 141.55 126.011 141.627 125.941 141.691C125.872 141.756 125.789 141.806 125.698 141.841C125.607 141.876 125.509 141.894 125.411 141.893H113.327ZM134.569 150.89C134.567 151.073 134.487 151.248 134.347 151.377C134.207 151.505 134.017 151.578 133.82 151.578H121.736C121.538 151.578 121.349 151.505 121.209 151.377C121.068 151.248 120.989 151.073 120.987 150.89V145.341C120.99 145.159 121.069 144.985 121.21 144.857C121.35 144.729 121.539 144.657 121.736 144.657H133.82C134.017 144.657 134.206 144.729 134.346 144.857C134.486 144.985 134.566 145.159 134.569 145.341V150.89ZM128.527 141.2V135.657C128.527 135.566 128.547 135.477 128.585 135.393C128.623 135.31 128.678 135.234 128.748 135.17C128.817 135.107 128.9 135.057 128.991 135.023C129.081 134.988 129.178 134.971 129.276 134.972H141.36C141.557 134.972 141.746 135.044 141.886 135.172C142.026 135.3 142.106 135.474 142.109 135.657V141.2C142.108 141.384 142.029 141.56 141.888 141.689C141.748 141.819 141.558 141.892 141.36 141.893H129.273C129.175 141.893 129.077 141.875 128.987 141.841C128.896 141.806 128.814 141.754 128.744 141.69C128.675 141.626 128.62 141.549 128.583 141.465C128.546 141.381 128.527 141.291 128.527 141.2ZM150.453 150.89C150.453 150.98 150.435 151.07 150.397 151.153C150.361 151.237 150.306 151.312 150.237 151.376C150.169 151.44 150.087 151.491 149.997 151.525C149.907 151.56 149.81 151.578 149.713 151.578H137.617C137.52 151.578 137.424 151.56 137.333 151.525C137.243 151.491 137.162 151.44 137.093 151.376C137.024 151.312 136.97 151.237 136.933 151.153C136.896 151.07 136.877 150.98 136.877 150.89V145.341C136.877 145.16 136.955 144.986 137.094 144.857C137.233 144.729 137.421 144.657 137.617 144.657H149.71C149.906 144.657 150.094 144.729 150.233 144.857C150.372 144.986 150.45 145.16 150.45 145.341L150.453 150.89ZM158.042 141.2C158.042 141.291 158.023 141.382 157.986 141.466C157.948 141.55 157.893 141.627 157.823 141.691C157.754 141.756 157.671 141.806 157.58 141.841C157.489 141.876 157.391 141.894 157.293 141.893H145.209C145.111 141.893 145.014 141.875 144.924 141.84C144.834 141.805 144.752 141.753 144.683 141.689C144.614 141.625 144.559 141.549 144.522 141.465C144.485 141.381 144.466 141.291 144.466 141.2V135.657C144.466 135.566 144.486 135.477 144.523 135.394C144.56 135.311 144.615 135.235 144.684 135.172C144.753 135.108 144.835 135.058 144.925 135.023C145.015 134.989 145.112 134.972 145.209 134.972H157.29C157.388 134.971 157.485 134.988 157.575 135.023C157.666 135.057 157.748 135.107 157.818 135.17C157.888 135.234 157.943 135.31 157.981 135.393C158.019 135.477 158.039 135.566 158.039 135.657L158.042 141.2ZM173.978 141.2C173.979 141.291 173.961 141.38 173.924 141.465C173.887 141.548 173.833 141.625 173.764 141.689C173.695 141.753 173.613 141.804 173.523 141.84C173.433 141.875 173.336 141.893 173.238 141.893H161.152C161.053 141.894 160.956 141.876 160.865 141.841C160.774 141.806 160.691 141.756 160.621 141.691C160.552 141.627 160.496 141.55 160.459 141.466C160.422 141.382 160.402 141.291 160.403 141.2V135.657C160.403 135.566 160.423 135.477 160.461 135.393C160.499 135.31 160.554 135.234 160.624 135.17C160.693 135.107 160.776 135.057 160.866 135.023C160.957 134.988 161.054 134.971 161.152 134.972H173.235C173.432 134.972 173.62 135.044 173.759 135.173C173.897 135.301 173.975 135.475 173.975 135.657L173.978 141.2ZM185.165 120.386C185.168 121.245 184.987 122.096 184.633 122.891C184.279 123.685 183.76 124.407 183.104 125.016C182.448 125.624 181.669 126.107 180.811 126.436C179.953 126.766 179.033 126.935 178.104 126.935H119.111C117.234 126.934 115.434 126.244 114.106 125.016C112.779 123.788 112.033 122.123 112.032 120.386V97.294C112.032 95.557 112.778 93.8911 114.105 92.6631C115.433 91.4348 117.234 90.745 119.111 90.745H178.092C179.021 90.745 179.941 90.9145 180.799 91.2436C181.656 91.5731 182.436 92.0556 183.092 92.6639C183.747 93.2725 184.267 93.9945 184.621 94.7891C184.975 95.5835 185.156 96.4346 185.153 97.294L185.165 120.386ZM184.131 83.0968C183.806 83.4013 183.419 83.6427 182.992 83.8071C182.565 83.9713 182.106 84.0553 181.644 84.0539H116.109C115.175 84.0531 114.28 83.7097 113.62 83.0988C112.96 82.4882 112.588 81.6601 112.588 80.7964C112.591 79.9333 112.963 79.1066 113.622 78.4963C114.282 77.886 115.176 77.5418 116.109 77.5389H181.638C182.101 77.5384 182.559 77.6224 182.986 77.786C183.413 77.9496 183.802 78.1896 184.129 78.4921C184.456 78.7948 184.715 79.1541 184.892 79.5494C185.069 79.9447 185.16 80.3684 185.159 80.7964C185.161 81.2238 185.071 81.6476 184.894 82.0426C184.717 82.4377 184.456 82.7961 184.128 83.0968H184.131Z" stroke="#CCDDE2" stroke-width="3.7" stroke-miterlimit="10"/>
<path d="M125.413 141.894H113.33C113.232 141.893 113.135 141.875 113.045 141.84C112.955 141.805 112.873 141.754 112.804 141.69C112.735 141.625 112.681 141.549 112.644 141.465C112.608 141.381 112.589 141.291 112.59 141.201V135.657C112.59 135.476 112.668 135.302 112.807 135.173C112.945 135.045 113.134 134.973 113.33 134.973H125.413C125.511 134.972 125.608 134.989 125.699 135.023C125.789 135.057 125.872 135.107 125.942 135.171C126.011 135.235 126.066 135.31 126.104 135.394C126.142 135.477 126.162 135.567 126.162 135.657V141.201C126.163 141.292 126.144 141.382 126.106 141.466C126.069 141.551 126.013 141.627 125.944 141.692C125.874 141.756 125.791 141.807 125.7 141.842C125.609 141.876 125.512 141.894 125.413 141.894Z" stroke="#CCDDE2" stroke-width="3.7" stroke-miterlimit="10"/>
<path d="M121.737 144.657H133.821C134.018 144.657 134.207 144.729 134.347 144.857C134.488 144.985 134.568 145.159 134.57 145.342V150.891C134.568 151.074 134.489 151.249 134.348 151.377C134.208 151.506 134.019 151.578 133.821 151.578H121.737C121.54 151.578 121.35 151.506 121.21 151.377C121.07 151.249 120.99 151.074 120.988 150.891V145.342C120.991 145.159 121.071 144.985 121.211 144.857C121.351 144.729 121.54 144.657 121.737 144.657Z" stroke="#CCDDE2" stroke-width="3.7" stroke-miterlimit="10"/>
<path d="M142.109 135.657V141.201C142.108 141.384 142.029 141.56 141.889 141.69C141.748 141.82 141.558 141.893 141.36 141.894H129.276C129.178 141.894 129.08 141.876 128.989 141.842C128.898 141.807 128.816 141.756 128.746 141.692C128.676 141.627 128.621 141.551 128.584 141.466C128.546 141.382 128.527 141.292 128.527 141.201V135.657C128.528 135.567 128.548 135.477 128.585 135.394C128.623 135.31 128.679 135.235 128.748 135.171C128.818 135.107 128.9 135.057 128.991 135.023C129.081 134.989 129.178 134.972 129.276 134.973H141.36C141.557 134.973 141.746 135.045 141.886 135.173C142.027 135.301 142.107 135.475 142.109 135.657Z" stroke="#CCDDE2" stroke-width="3.7" stroke-miterlimit="10"/>
<path d="M149.712 144.657H137.619C137.21 144.657 136.879 144.964 136.879 145.342V150.894C136.879 151.272 137.21 151.578 137.619 151.578H149.712C150.12 151.578 150.451 151.272 150.451 150.894V145.342C150.451 144.964 150.12 144.657 149.712 144.657Z" stroke="#CCDDE2" stroke-width="3.7" stroke-miterlimit="10"/>
<path d="M145.212 141.894C145.114 141.893 145.017 141.875 144.926 141.84C144.836 141.805 144.754 141.754 144.685 141.69C144.616 141.625 144.561 141.549 144.524 141.465C144.487 141.381 144.468 141.291 144.469 141.201V135.657C144.469 135.567 144.488 135.478 144.525 135.394C144.563 135.311 144.618 135.236 144.686 135.172C144.756 135.108 144.837 135.058 144.928 135.024C145.018 134.99 145.114 134.972 145.212 134.973H157.292C157.39 134.972 157.487 134.989 157.578 135.023C157.668 135.057 157.751 135.107 157.82 135.171C157.89 135.235 157.945 135.31 157.983 135.394C158.021 135.477 158.041 135.567 158.041 135.657V141.201C158.042 141.292 158.023 141.382 157.985 141.466C157.948 141.551 157.892 141.627 157.823 141.692C157.753 141.756 157.67 141.807 157.579 141.842C157.488 141.876 157.391 141.894 157.292 141.894H145.212Z" stroke="#CCDDE2" stroke-width="3.7" stroke-miterlimit="10"/>
<path d="M161.155 141.894C161.057 141.894 160.959 141.876 160.868 141.842C160.777 141.807 160.695 141.756 160.625 141.692C160.555 141.627 160.5 141.551 160.462 141.466C160.425 141.382 160.406 141.292 160.406 141.201V135.657C160.407 135.567 160.427 135.477 160.464 135.394C160.502 135.31 160.558 135.235 160.627 135.171C160.697 135.107 160.779 135.057 160.87 135.023C160.96 134.989 161.057 134.972 161.155 134.973H173.239C173.435 134.973 173.623 135.045 173.762 135.173C173.901 135.302 173.979 135.476 173.979 135.657V141.201C173.98 141.291 173.961 141.381 173.924 141.465C173.888 141.549 173.833 141.625 173.764 141.69C173.696 141.754 173.614 141.805 173.524 141.84C173.433 141.875 173.337 141.893 173.239 141.894H161.155Z" stroke="#CCDDE2" stroke-width="3.7" stroke-miterlimit="10"/>
<path d="M179.258 166.171V209.432H118.496V166.171C118.501 164.437 119.249 162.775 120.576 161.551C121.903 160.326 123.701 159.639 125.576 159.639H172.178C174.053 159.638 175.851 160.325 177.179 161.55C178.506 162.775 179.254 164.436 179.258 166.171Z" stroke="#CCDDE2" stroke-width="3.7" stroke-miterlimit="10"/>
<path d="M112.59 80.7965C112.593 79.9335 112.965 79.1065 113.625 78.4964C114.284 77.8861 115.178 77.5419 116.111 77.5391H181.64C182.103 77.5385 182.561 77.6226 182.988 77.7862C183.416 77.9497 183.804 78.1897 184.131 78.4922C184.458 78.7946 184.718 79.1539 184.894 79.5495C185.071 79.9448 185.162 80.3686 185.162 80.7965C185.158 81.6593 184.786 82.4864 184.127 83.0964C183.467 83.7067 182.573 84.0509 181.64 84.054H116.111C115.178 84.0532 114.282 83.7098 113.622 83.0989C112.962 82.4883 112.591 81.6602 112.59 80.7965Z" stroke="#CCDDE2" stroke-width="3.7" stroke-miterlimit="10"/>
<path d="M145.069 100.523V117.186C145.07 117.791 144.941 118.391 144.692 118.951C144.442 119.51 144.075 120.019 143.613 120.448C143.15 120.876 142.601 121.216 141.997 121.448C141.392 121.68 140.744 121.8 140.089 121.801H122.624C121.302 121.799 120.035 121.312 119.102 120.447C118.168 119.581 117.644 118.408 117.645 117.186V100.523C117.644 99.9181 117.773 99.3186 118.023 98.7591C118.273 98.1999 118.639 97.6915 119.102 97.2633C119.564 96.835 120.113 96.495 120.718 96.263C121.322 96.031 121.97 95.9114 122.624 95.9111H140.089C140.744 95.9111 141.392 96.0304 141.996 96.2624C142.601 96.4942 143.15 96.8338 143.612 97.2624C144.075 97.6907 144.442 98.199 144.692 98.7588C144.941 99.3183 145.07 99.9178 145.069 100.523Z" stroke="#CCDDE2" stroke-width="3.7" stroke-miterlimit="10"/>
<path d="M179.367 100.503V117.208C179.368 117.813 179.24 118.413 178.99 118.973C178.741 119.532 178.374 120.041 177.911 120.47C177.449 120.898 176.9 121.238 176.295 121.47C175.69 121.702 175.042 121.822 174.388 121.823H156.889C156.234 121.822 155.586 121.702 154.981 121.47C154.376 121.238 153.827 120.898 153.365 120.47C152.902 120.041 152.535 119.532 152.285 118.973C152.035 118.413 151.906 117.813 151.906 117.208V100.503C151.906 99.8969 152.035 99.2971 152.285 98.7374C152.535 98.1779 152.902 97.6692 153.365 97.2407C153.827 96.8121 154.376 96.4719 154.981 96.2399C155.586 96.0078 156.234 95.888 156.889 95.8877H174.388C175.042 95.888 175.69 96.0078 176.295 96.2399C176.9 96.4722 177.449 96.8121 177.911 97.2407C178.374 97.6692 178.741 98.1779 178.99 98.7376C179.24 99.2974 179.368 99.8972 179.367 100.503Z" stroke="#CCDDE2" stroke-width="3.7" stroke-miterlimit="10"/>
<path d="M178.092 90.7451H119.111C117.233 90.7451 115.433 91.4349 114.105 92.6632C112.777 93.8913 112.031 95.5572 112.031 97.2942V120.386C112.032 122.123 112.778 123.788 114.106 125.016C115.433 126.244 117.233 126.934 119.111 126.935H178.092C179.021 126.935 179.94 126.766 180.798 126.436C181.656 126.107 182.435 125.624 183.091 125.016C183.747 124.408 184.267 123.685 184.62 122.891C184.974 122.096 185.155 121.245 185.153 120.386V97.2942C185.155 96.4348 184.974 95.5836 184.62 94.789C184.267 93.9946 183.747 93.2724 183.091 92.6641C182.435 92.0558 181.656 91.5733 180.798 91.2438C179.94 90.9144 179.021 90.7451 178.092 90.7451ZM145.068 117.186C145.068 117.791 144.94 118.391 144.69 118.95C144.44 119.51 144.074 120.019 143.611 120.447C143.149 120.876 142.6 121.216 141.995 121.448C141.391 121.68 140.743 121.8 140.088 121.801H122.623C121.301 121.799 120.034 121.312 119.1 120.446C118.166 119.581 117.642 118.408 117.643 117.186V100.523C117.643 99.9177 117.771 99.3182 118.021 98.759C118.271 98.1995 118.638 97.6912 119.101 97.2629C119.563 96.8346 120.112 96.495 120.716 96.2629C121.32 96.0309 121.969 95.9114 122.623 95.9111H140.088C140.743 95.9111 141.391 96.0303 141.995 96.2621C142.6 96.4938 143.149 96.8338 143.611 97.2621C144.074 97.6906 144.44 98.199 144.69 98.7585C144.94 99.3179 145.068 99.9177 145.068 100.523V117.186ZM179.363 117.208C179.363 117.814 179.235 118.414 178.985 118.973C178.735 119.533 178.369 120.041 177.906 120.47C177.444 120.899 176.895 121.239 176.29 121.471C175.686 121.703 175.037 121.823 174.383 121.823H156.884C156.229 121.823 155.581 121.703 154.976 121.471C154.371 121.239 153.822 120.899 153.36 120.47C152.897 120.042 152.53 119.533 152.28 118.973C152.029 118.414 151.901 117.814 151.901 117.208V100.503C151.901 99.8976 152.029 99.2978 152.28 98.738C152.53 98.1782 152.897 97.6696 153.36 97.241C153.822 96.8125 154.371 96.4725 154.976 96.2405C155.581 96.0082 156.229 95.8886 156.884 95.8884H174.383C175.037 95.8886 175.686 96.0082 176.29 96.2405C176.895 96.4725 177.444 96.8128 177.906 97.2413C178.369 97.6699 178.735 98.1785 178.985 98.7383C179.235 99.298 179.363 99.8976 179.363 100.503V117.208Z" stroke="#CCDDE2" stroke-width="3.7" stroke-miterlimit="10"/>
<path d="M145.069 100.523V117.186C145.07 117.791 144.941 118.391 144.692 118.951C144.442 119.51 144.075 120.019 143.613 120.448C143.15 120.876 142.601 121.216 141.997 121.448C141.392 121.68 140.744 121.8 140.089 121.801H122.624C121.302 121.799 120.035 121.312 119.102 120.447C118.168 119.581 117.644 118.408 117.645 117.186V100.523C117.644 99.9181 117.773 99.3186 118.023 98.7591C118.273 98.1999 118.639 97.6915 119.102 97.2633C119.564 96.835 120.113 96.495 120.718 96.263C121.322 96.031 121.97 95.9114 122.624 95.9111H140.089C140.744 95.9111 141.392 96.0304 141.996 96.2624C142.601 96.4942 143.15 96.8338 143.612 97.2624C144.075 97.6907 144.442 98.199 144.692 98.7588C144.941 99.3183 145.07 99.9178 145.069 100.523Z" stroke="#CCDDE2" stroke-width="3.7" stroke-miterlimit="10"/>
<path d="M179.367 100.503V117.208C179.368 117.813 179.24 118.413 178.99 118.973C178.741 119.532 178.374 120.041 177.911 120.47C177.449 120.898 176.9 121.238 176.295 121.47C175.69 121.702 175.042 121.822 174.388 121.823H156.889C156.234 121.822 155.586 121.702 154.981 121.47C154.376 121.238 153.827 120.898 153.365 120.47C152.902 120.041 152.535 119.532 152.285 118.973C152.035 118.413 151.906 117.813 151.906 117.208V100.503C151.906 99.8969 152.035 99.2971 152.285 98.7374C152.535 98.1779 152.902 97.6692 153.365 97.2407C153.827 96.8121 154.376 96.4719 154.981 96.2399C155.586 96.0078 156.234 95.888 156.889 95.8877H174.388C175.042 95.888 175.69 96.0078 176.295 96.2399C176.9 96.4722 177.449 96.8121 177.911 97.2407C178.374 97.6692 178.741 98.1779 178.99 98.7376C179.24 99.2974 179.368 99.8972 179.367 100.503Z" stroke="#CCDDE2" stroke-width="3.7" stroke-miterlimit="10"/>
<path d="M179.367 100.503V117.208C179.368 117.813 179.24 118.413 178.99 118.973C178.741 119.532 178.374 120.041 177.911 120.47C177.449 120.898 176.9 121.238 176.295 121.47C175.69 121.702 175.042 121.822 174.388 121.823H156.889C156.234 121.822 155.586 121.702 154.981 121.47C154.376 121.238 153.827 120.898 153.365 120.47C152.902 120.041 152.535 119.532 152.285 118.973C152.035 118.413 151.906 117.813 151.906 117.208V100.503C151.906 99.8969 152.035 99.2971 152.285 98.7374C152.535 98.1779 152.902 97.6692 153.365 97.2407C153.827 96.8121 154.376 96.4719 154.981 96.2399C155.586 96.0078 156.234 95.888 156.889 95.8877H174.388C175.042 95.888 175.69 96.0078 176.295 96.2399C176.9 96.4722 177.449 96.8121 177.911 97.2407C178.374 97.6692 178.741 98.1779 178.99 98.7376C179.24 99.2974 179.368 99.8972 179.367 100.503Z" stroke="#CCDDE2" stroke-width="3.7" stroke-miterlimit="10"/>
<path d="M145.069 100.523V117.186C145.07 117.791 144.941 118.391 144.692 118.951C144.442 119.51 144.075 120.019 143.613 120.448C143.15 120.876 142.601 121.216 141.997 121.448C141.392 121.68 140.744 121.8 140.089 121.801H122.624C121.302 121.799 120.035 121.312 119.102 120.447C118.168 119.581 117.644 118.408 117.645 117.186V100.523C117.644 99.9181 117.773 99.3186 118.023 98.7591C118.273 98.1999 118.639 97.6915 119.102 97.2633C119.564 96.835 120.113 96.495 120.718 96.263C121.322 96.031 121.97 95.9114 122.624 95.9111H140.089C140.744 95.9111 141.392 96.0304 141.996 96.2624C142.601 96.4942 143.15 96.8338 143.612 97.2624C144.075 97.6907 144.442 98.199 144.692 98.7588C144.941 99.3183 145.07 99.9178 145.069 100.523Z" stroke="#CCDDE2" stroke-width="3.7" stroke-miterlimit="10"/>
<path d="M179.258 166.171V209.432H118.496V166.171C118.501 164.437 119.249 162.775 120.576 161.551C121.903 160.326 123.701 159.639 125.576 159.639H172.178C174.053 159.638 175.851 160.325 177.179 161.55C178.506 162.775 179.254 164.436 179.258 166.171Z" stroke="#CCDDE2" stroke-width="3.7" stroke-miterlimit="10"/>
<path d="M126.162 135.657V141.201C126.163 141.292 126.144 141.382 126.106 141.466C126.069 141.551 126.013 141.627 125.944 141.692C125.874 141.756 125.791 141.807 125.7 141.842C125.609 141.876 125.512 141.894 125.413 141.894H113.33C113.232 141.893 113.135 141.875 113.045 141.84C112.955 141.805 112.873 141.754 112.804 141.69C112.735 141.625 112.681 141.549 112.644 141.465C112.608 141.381 112.589 141.291 112.59 141.201V135.657C112.59 135.476 112.668 135.302 112.807 135.173C112.945 135.045 113.134 134.973 113.33 134.973H125.413C125.511 134.972 125.608 134.989 125.699 135.023C125.789 135.057 125.872 135.107 125.942 135.171C126.011 135.235 126.066 135.31 126.104 135.394C126.142 135.477 126.162 135.567 126.162 135.657Z" stroke="#CCDDE2" stroke-width="3.7" stroke-miterlimit="10"/>
<path d="M142.109 135.657V141.201C142.108 141.384 142.029 141.56 141.889 141.69C141.748 141.82 141.558 141.893 141.36 141.894H129.276C129.178 141.894 129.08 141.876 128.989 141.842C128.898 141.807 128.816 141.756 128.746 141.692C128.676 141.627 128.621 141.551 128.584 141.466C128.546 141.382 128.527 141.292 128.527 141.201V135.657C128.528 135.567 128.548 135.477 128.585 135.394C128.623 135.31 128.679 135.235 128.748 135.171C128.818 135.107 128.9 135.057 128.991 135.023C129.081 134.989 129.178 134.972 129.276 134.973H141.36C141.557 134.973 141.746 135.045 141.886 135.173C142.027 135.301 142.107 135.475 142.109 135.657Z" stroke="#CCDDE2" stroke-width="3.7" stroke-miterlimit="10"/>
<path d="M158.041 135.657V141.201C158.042 141.292 158.023 141.382 157.985 141.466C157.948 141.551 157.892 141.627 157.823 141.692C157.753 141.756 157.67 141.807 157.579 141.842C157.488 141.876 157.391 141.894 157.292 141.894H145.212C145.114 141.893 145.017 141.875 144.926 141.84C144.836 141.805 144.754 141.754 144.685 141.69C144.616 141.625 144.561 141.549 144.524 141.465C144.487 141.381 144.468 141.291 144.469 141.201V135.657C144.469 135.567 144.488 135.478 144.525 135.394C144.563 135.311 144.618 135.236 144.686 135.172C144.756 135.108 144.837 135.058 144.928 135.024C145.018 134.99 145.114 134.972 145.212 134.973H157.292C157.39 134.972 157.487 134.989 157.578 135.023C157.668 135.057 157.751 135.107 157.82 135.171C157.89 135.235 157.945 135.31 157.983 135.394C158.021 135.477 158.041 135.567 158.041 135.657Z" stroke="#CCDDE2" stroke-width="3.7" stroke-miterlimit="10"/>
<path d="M173.966 135.657V141.201C173.967 141.291 173.949 141.381 173.912 141.465C173.875 141.549 173.821 141.625 173.752 141.69C173.683 141.754 173.601 141.805 173.511 141.84C173.421 141.875 173.325 141.893 173.227 141.894H161.155C161.057 141.894 160.959 141.876 160.868 141.842C160.777 141.807 160.695 141.756 160.625 141.692C160.555 141.627 160.5 141.551 160.462 141.466C160.425 141.382 160.406 141.292 160.406 141.201V135.657C160.407 135.567 160.427 135.477 160.464 135.394C160.502 135.31 160.558 135.235 160.627 135.171C160.697 135.107 160.779 135.057 160.87 135.023C160.96 134.989 161.057 134.972 161.155 134.973H173.239C173.433 134.976 173.618 135.049 173.754 135.177C173.89 135.305 173.966 135.478 173.966 135.657Z" stroke="#CCDDE2" stroke-width="3.7" stroke-miterlimit="10"/>
<path d="M134.57 145.342V150.891C134.568 151.074 134.489 151.249 134.348 151.377C134.208 151.506 134.019 151.578 133.821 151.578H121.737C121.54 151.578 121.35 151.506 121.21 151.377C121.07 151.249 120.99 151.074 120.988 150.891V145.342C120.991 145.159 121.071 144.985 121.211 144.857C121.351 144.729 121.54 144.657 121.737 144.657H133.821C134.018 144.657 134.207 144.729 134.347 144.857C134.488 144.985 134.568 145.159 134.57 145.342Z" stroke="#CCDDE2" stroke-width="3.7" stroke-miterlimit="10"/>
<path d="M149.712 144.657H137.619C137.21 144.657 136.879 144.964 136.879 145.342V150.894C136.879 151.272 137.21 151.578 137.619 151.578H149.712C150.12 151.578 150.451 151.272 150.451 150.894V145.342C150.451 144.964 150.12 144.657 149.712 144.657Z" stroke="#CCDDE2" stroke-width="3.7" stroke-miterlimit="10"/>
<path d="M185.165 80.7965C185.162 81.6599 184.789 82.4872 184.129 83.0975C183.468 83.7078 182.574 84.0518 181.64 84.054H116.111C115.178 84.0532 114.282 83.7098 113.622 83.0989C112.962 82.4883 112.591 81.6602 112.59 80.7965C112.593 79.9335 112.965 79.1065 113.625 78.4964C114.284 77.8861 115.178 77.5419 116.111 77.5391H181.64C182.103 77.5382 182.562 77.622 182.989 77.7853C183.417 77.9486 183.806 78.1886 184.133 78.4913C184.46 78.7938 184.72 79.153 184.897 79.5487C185.074 79.9443 185.165 80.3683 185.165 80.7965Z" stroke="#CCDDE2" stroke-width="3.7" stroke-miterlimit="10"/>
<path d="M171.989 164.642H125.586C124.486 164.642 123.594 165.467 123.594 166.485V166.556C123.594 167.574 124.486 168.399 125.586 168.399H171.989C173.09 168.399 173.982 167.574 173.982 166.556V166.485C173.982 165.467 173.09 164.642 171.989 164.642Z" stroke="#CCDDE2" stroke-width="3.7" stroke-miterlimit="10"/>
<path d="M171.989 172.395H125.586C124.486 172.395 123.594 173.22 123.594 174.238V174.309C123.594 175.327 124.486 176.152 125.586 176.152H171.989C173.09 176.152 173.982 175.327 173.982 174.309V174.238C173.982 173.22 173.09 172.395 171.989 172.395Z" stroke="#CCDDE2" stroke-width="3.7" stroke-miterlimit="10"/>
<path d="M171.989 180.148H125.586C124.486 180.148 123.594 180.974 123.594 181.992V182.063C123.594 183.081 124.486 183.906 125.586 183.906H171.989C173.09 183.906 173.982 183.081 173.982 182.063V181.992C173.982 180.974 173.09 180.148 171.989 180.148Z" stroke="#CCDDE2" stroke-width="3.7" stroke-miterlimit="10"/>
<path d="M171.989 187.904H125.586C124.486 187.904 123.594 188.73 123.594 189.747V189.818C123.594 190.836 124.486 191.662 125.586 191.662H171.989C173.09 191.662 173.982 190.836 173.982 189.818V189.747C173.982 188.73 173.09 187.904 171.989 187.904Z" stroke="#CCDDE2" stroke-width="3.7" stroke-miterlimit="10"/>
<path d="M171.989 195.657H125.586C124.486 195.657 123.594 196.482 123.594 197.5V197.571C123.594 198.589 124.486 199.415 125.586 199.415H171.989C173.09 199.415 173.982 198.589 173.982 197.571V197.5C173.982 196.482 173.09 195.657 171.989 195.657Z" stroke="#CCDDE2" stroke-width="3.7" stroke-miterlimit="10"/>
<path d="M93.6464 55.7363H212.173C214.031 55.7363 215.813 56.4191 217.127 57.6346C218.441 58.8498 219.179 60.4984 219.179 62.2172V68.4652H86.6406V62.2172C86.6406 60.4984 87.3787 58.8498 88.6926 57.6346C90.0063 56.4191 91.7884 55.7363 93.6464 55.7363Z" stroke="#CCDDE2" stroke-width="3.7" stroke-miterlimit="10"/>
<path d="M206.523 156.928H219.267V167.654H231.36V179.974H243.136V189.622H254.726V198.111H278.65V209.425H206.523V156.928Z" stroke="#CCDDE2" stroke-width="3.7" stroke-miterlimit="10"/>
<path d="M208.93 133.178H219.352H219.669L231.381 144.015L243.188 154.935L254.731 165.613L260.189 170.663" stroke="#CCDDE2" stroke-width="3.7" stroke-miterlimit="10"/>
<path d="M219.352 167.655V133.178" stroke="#CCDDE2" stroke-width="3.7" stroke-miterlimit="10"/>
<path d="M254.73 189.625V165.613" stroke="#CCDDE2" stroke-width="3.7" stroke-miterlimit="10"/>
<path d="M231.379 172.483V144.012" stroke="#CCDDE2" stroke-width="3.7" stroke-miterlimit="10"/>
<path d="M243.141 154.935V180.918" stroke="#CCDDE2" stroke-width="3.7" stroke-miterlimit="10"/>
<path d="M102.164 185.845V193.124" stroke="#CCDDE2" stroke-width="3.7" stroke-miterlimit="10"/>
<path d="M90.5078 193.124V188.648C91.0021 189.96 92.3314 191.105 94.0445 191.67C93.4888 187.921 92.402 182.014 90.5078 176.729" stroke="#CCDDE2" stroke-width="3.7" stroke-miterlimit="10"/>
<path d="M102.168 171.267V108.844H90.5078V168.461" stroke="#CCDDE2" stroke-width="3.7" stroke-miterlimit="10"/>
<path d="M90.5078 188.654V193.124" stroke="#CCDDE2" stroke-width="3.7" stroke-miterlimit="10"/>
<path d="M90.5067 168.462V108.845H17.9258V209.432H89.5642H90.5067" stroke="#CCDDE2" stroke-width="3.7" stroke-miterlimit="10"/>
<path d="M40.0039 123.576V162.878C40.0039 166.425 43.1117 169.3 46.9452 169.3H63.2162C67.0497 169.3 70.1574 166.425 70.1574 162.878V123.576C70.1574 120.029 67.0497 117.154 63.2162 117.154H46.9452C43.1117 117.154 40.0039 120.029 40.0039 123.576Z" stroke="#CCDDE2" stroke-width="3.7" stroke-miterlimit="10"/>
<path d="M44.2891 125.813V136.355C44.2891 138.854 46.4786 140.879 49.1796 140.879H61.0052C63.7062 140.879 65.8957 138.854 65.8957 136.355V125.813C65.8957 123.315 63.7062 121.289 61.0052 121.289H49.1796C46.4786 121.289 44.2891 123.315 44.2891 125.813Z" stroke="#CCDDE2" stroke-width="3.7" stroke-miterlimit="10"/>
<path d="M44.3086 150.262V160.773C44.3086 163.272 46.4981 165.297 49.1991 165.297H60.9879C63.6889 165.297 65.8784 163.272 65.8784 160.773V150.262C65.8784 147.764 63.6889 145.738 60.9879 145.738H49.1991C46.4981 145.738 44.3086 147.764 44.3086 150.262Z" stroke="#CCDDE2" stroke-width="3.7" stroke-miterlimit="10"/>
<path d="M41.1387 175.249H29.0306C28.6254 175.249 28.2969 175.553 28.2969 175.928V181.494C28.2969 181.869 28.6254 182.173 29.0306 182.173H41.1387C41.5439 182.173 41.8724 181.869 41.8724 181.494V175.928C41.8724 175.553 41.5439 175.249 41.1387 175.249Z" stroke="#CCDDE2" stroke-width="3.7" stroke-miterlimit="10"/>
<path d="M57.0801 175.249H44.972C44.5668 175.249 44.2383 175.553 44.2383 175.928V181.494C44.2383 181.869 44.5668 182.173 44.972 182.173H57.0801C57.4853 182.173 57.8138 181.869 57.8138 181.494V175.928C57.8138 175.553 57.4853 175.249 57.0801 175.249Z" stroke="#CCDDE2" stroke-width="3.7" stroke-miterlimit="10"/>
<path d="M73.0215 175.249H60.9134C60.5082 175.249 60.1797 175.553 60.1797 175.928V181.494C60.1797 181.869 60.5082 182.173 60.9134 182.173H73.0215C73.4267 182.173 73.7552 181.869 73.7552 181.494V175.928C73.7552 175.553 73.4267 175.249 73.0215 175.249Z" stroke="#CCDDE2" stroke-width="3.7" stroke-miterlimit="10"/>
<path d="M49.5449 184.937H37.4369C37.0316 184.937 36.7031 185.24 36.7031 185.615V191.182C36.7031 191.557 37.0316 191.86 37.4369 191.86H49.5449C49.9502 191.86 50.2787 191.557 50.2787 191.182V185.615C50.2787 185.24 49.9502 184.937 49.5449 184.937Z" stroke="#CCDDE2" stroke-width="3.7" stroke-miterlimit="10"/>
<path d="M65.4317 184.937H53.3236C52.9183 184.937 52.5898 185.24 52.5898 185.615V191.182C52.5898 191.557 52.9183 191.86 53.3236 191.86H65.4317C65.8369 191.86 66.1654 191.557 66.1654 191.182V185.615C66.1654 185.24 65.8369 184.937 65.4317 184.937Z" stroke="#CCDDE2" stroke-width="3.7" stroke-miterlimit="10"/>
<path d="M9.49238 96.0156H102.206V108.736H2.35156V102.624C2.35236 100.872 3.10488 99.1922 4.44377 97.9531C5.78266 96.714 7.5985 96.017 9.49238 96.0156Z" stroke="#CCDDE2" stroke-width="3.7" stroke-miterlimit="10"/>
<path d="M96.4461 179.577C97.0816 179.1 97.8184 178.66 98.328 178.135C99.7586 176.655 99.2091 174.764 100.127 173.139C101.244 171.151 104.757 169.774 108.21 169.956C107.883 170.89 107.659 171.853 107.541 172.83C107.44 173.699 107.685 174.664 107.415 175.508C106.976 176.86 104.631 177.68 104.345 179.069C104.093 180.296 105.647 181.443 105.389 182.693C105.116 184.033 102.89 184.775 102.07 185.959C101.401 186.925 101.717 188.026 101.37 189.052C100.95 190.29 99.4946 191.383 97.5881 191.892L97.3978 191.943C96.6975 191.387 96.0967 190.732 95.6172 190.003" stroke="#CCDDE2" stroke-width="3.7" stroke-miterlimit="10"/>
<path d="M106.117 171.512C100.969 176.371 98.5466 186.615 97.6041 191.897C97.5274 192.343 97.4568 192.749 97.3984 193.121" stroke="#CCDDE2" stroke-width="3.7" stroke-miterlimit="10"/>
<path d="M106.577 196.098L104.207 208.349C104.142 208.693 103.947 209.005 103.658 209.229C103.369 209.453 103.003 209.576 102.626 209.576H90.2448C89.8639 209.576 89.4952 209.451 89.205 209.222C88.9149 208.994 88.7218 208.677 88.6607 208.33L86.4688 196.098H106.577Z" stroke="#CCDDE2" stroke-width="3.7" stroke-miterlimit="10"/>
<path d="M108.83 194.731C108.797 195.104 108.613 195.451 108.316 195.704C108.02 195.957 107.631 196.097 107.227 196.097H85.8569C85.4568 196.098 85.0712 195.96 84.7753 195.711C84.4797 195.462 84.2949 195.12 84.2574 194.751C84.2359 194.545 84.2614 194.337 84.332 194.14C84.4026 193.944 84.5171 193.763 84.6675 193.609C84.8183 193.456 85.0016 193.333 85.2066 193.249C85.4114 193.165 85.6328 193.121 85.8569 193.121H107.215C107.438 193.12 107.659 193.161 107.864 193.243C108.07 193.325 108.254 193.446 108.406 193.597C108.558 193.749 108.674 193.928 108.747 194.123C108.82 194.318 108.848 194.526 108.83 194.731Z" stroke="#CCDDE2" stroke-width="3.7" stroke-miterlimit="10"/>
<path d="M90.507 188.649C90.4708 188.556 90.4401 188.461 90.4149 188.365C90.0742 187.178 90.3781 185.891 89.7365 184.778C88.9475 183.406 86.8169 182.548 86.5467 180.992C86.3073 179.549 87.7993 178.215 87.5506 176.792C87.2805 175.187 85.0271 174.236 84.6004 172.665C84.3456 171.694 84.5789 170.572 84.4868 169.564C84.3723 168.439 84.1546 167.326 83.8359 166.235C86.384 166.074 88.9628 166.98 90.507 168.451C90.97 168.875 91.3418 169.378 91.603 169.93C92.4841 171.808 91.9591 174 93.3345 175.715C94.0836 176.644 95.3269 177.337 95.9655 178.308C96.1792 178.626 96.3287 178.976 96.4076 179.342C96.4107 179.369 96.4159 179.395 96.4229 179.422C96.4383 179.473 96.4444 179.521 96.4536 179.564C96.6839 181.001 96.0914 182.557 96.2817 184.037C96.4536 185.263 97.172 186.493 96.7606 187.692C96.4724 188.498 96.0895 189.272 95.6186 190.001C95.2367 190.628 94.767 191.207 94.2217 191.722C94.1603 191.707 94.1051 191.685 94.0437 191.665C93.488 187.916 92.4012 182.009 90.507 176.724" stroke="#CCDDE2" stroke-width="3.7" stroke-miterlimit="10"/>
<path d="M94.2452 193.118C94.19 192.68 94.1193 192.203 94.0426 191.675C93.4869 187.926 92.4001 182.019 90.506 176.734C89.3117 173.368 87.789 170.241 85.8672 168.055" stroke="#CCDDE2" stroke-width="3.7" stroke-miterlimit="10"/>
<path d="M93.3359 175.724C93.3359 175.724 93.6767 170.833 96.5287 169.345C99.3808 167.857 99.3194 176.195 99.3194 176.195" stroke="#CCDDE2" stroke-width="3.7" stroke-miterlimit="10"/>
<path d="M96.4464 179.577C96.1244 177.72 96.2745 175.82 96.8854 174.027" stroke="#CCDDE2" stroke-width="3.7" stroke-miterlimit="10"/>
<path d="M139.405 88.0814C139.801 88.4784 140.03 88.9939 140.05 89.534C140.069 90.0739 139.879 90.6027 139.513 91.0236L132.418 102.313L132.169 104.585L129.962 125.104L126.456 157.693C126.435 157.9 126.388 158.107 126.349 158.315C126.327 158.479 126.303 158.644 126.272 158.809C126.226 159.022 126.171 159.223 126.118 159.428C126.066 159.632 126.032 159.766 125.977 159.931C125.922 160.095 125.848 160.322 125.771 160.516L125.584 161.001C125.501 161.194 125.415 161.379 125.329 161.569C125.243 161.76 125.167 161.879 125.084 162.035C125.001 162.191 124.89 162.393 124.777 162.563C124.663 162.734 124.589 162.864 124.491 163.006C124.393 163.148 124.267 163.341 124.141 163.506C124.015 163.671 123.926 163.79 123.819 163.921C123.586 164.205 123.355 164.472 123.1 164.727C122.968 164.869 122.83 165.011 122.692 165.148C122.554 165.284 122.385 165.412 122.244 165.542C122.103 165.673 121.965 165.784 121.817 165.897C121.67 166.011 121.51 166.142 121.341 166.255C121.173 166.369 121.034 166.477 120.878 166.576C120.721 166.676 120.543 166.792 120.374 166.9C120.205 167.008 120.043 167.09 119.874 167.184C119.705 167.278 119.524 167.371 119.349 167.468C119.174 167.564 118.993 167.633 118.809 167.709C118.624 167.786 118.453 167.874 118.268 167.945C118.084 168.016 117.872 168.09 117.673 168.152C117.473 168.215 117.317 168.28 117.139 168.331C116.801 168.431 116.454 168.516 116.104 168.59C115.904 168.632 115.711 168.666 115.511 168.695C115.312 168.723 115.125 168.766 114.925 168.797H114.956L117.694 174.193L120.258 174.216C119.43 174.324 118.593 174.358 117.759 174.315L121.817 182.321C122.469 183.605 122.76 185.02 122.663 186.436C122.565 187.851 122.084 189.221 121.262 190.418C120.441 191.616 119.305 192.602 117.962 193.285C116.618 193.969 115.111 194.328 113.577 194.329H108.665C108.475 194.329 108.287 194.364 108.112 194.432C107.936 194.5 107.777 194.599 107.643 194.723C107.509 194.848 107.403 194.996 107.331 195.159C107.258 195.322 107.222 195.496 107.222 195.672V196.336C108.899 196.862 110.319 197.922 111.23 199.326C112.141 200.731 112.483 202.389 112.195 204.004C111.907 205.62 111.007 207.089 109.658 208.149C108.308 209.209 106.595 209.79 104.825 209.79C103.054 209.79 101.342 209.209 99.9917 208.149C98.6421 207.089 97.7429 205.62 97.4549 204.004C97.167 202.389 97.5087 200.731 98.4195 199.326C99.3301 197.922 100.751 196.862 102.427 196.336V195.672C102.427 195.496 102.39 195.321 102.318 195.158C102.245 194.995 102.139 194.847 102.004 194.722C101.869 194.598 101.709 194.498 101.533 194.431C101.357 194.363 101.169 194.329 100.978 194.329H46.7772C46.5866 194.329 46.3981 194.363 46.2219 194.431C46.0459 194.498 45.886 194.598 45.7515 194.722C45.6168 194.847 45.5102 194.995 45.4375 195.158C45.365 195.321 45.3279 195.496 45.3282 195.672V196.336C47.0075 196.862 48.4301 197.923 49.3425 199.329C50.2549 200.735 50.5978 202.395 50.3096 204.014C50.0216 205.632 49.1215 207.103 47.7701 208.164C46.4183 209.225 44.7034 209.808 42.9305 209.808C41.1576 209.808 39.4427 209.225 38.091 208.164C36.7395 207.103 35.8394 205.632 35.5515 204.014C35.2632 202.395 35.6061 200.735 36.5185 199.329C37.4309 197.923 38.8535 196.862 40.5328 196.336V195.672C40.5328 195.316 40.38 194.974 40.1076 194.722C39.8353 194.47 39.4657 194.329 39.0807 194.329H30.6566C30.2689 194.328 29.8904 194.22 29.5686 194.021C29.2466 193.821 28.9961 193.537 28.8484 193.206C28.7004 192.874 28.6621 192.51 28.7382 192.158C28.814 191.806 29.001 191.484 29.2751 191.23C29.4563 191.062 29.6715 190.929 29.9088 190.838C30.1458 190.747 30.4 190.701 30.6566 190.702H111.812C112.837 190.701 113.844 190.461 114.742 190.005C115.64 189.549 116.399 188.891 116.95 188.092C117.5 187.293 117.824 186.378 117.892 185.433C117.96 184.487 117.77 183.541 117.338 182.682L110.36 168.752L40.4223 163.52C40.3689 163.509 40.3143 163.501 40.2596 163.498C39.9526 163.469 39.6456 163.432 39.3386 163.384C39.2355 163.372 39.1329 163.355 39.0316 163.333C38.6847 163.276 38.3531 163.205 38.0185 163.126L37.733 163.049C37.426 162.961 37.119 162.87 36.812 162.765L36.5725 162.68C36.2932 162.58 36.0169 162.467 35.7467 162.345C35.6322 162.3 35.5204 162.25 35.4121 162.194C35.1665 162.08 34.9209 161.958 34.6814 161.822C32.6663 160.727 30.9956 159.163 29.8348 157.287C28.6737 155.41 28.0628 153.286 28.0625 151.124V123.079C28.0631 120.087 29.2297 117.196 31.348 114.936C33.4666 112.675 36.3951 111.197 39.5965 110.773L127.199 99.129L135.829 88.0729C136.059 87.8477 136.336 87.6685 136.644 87.5463C136.952 87.4242 137.284 87.3617 137.619 87.3623C137.954 87.3632 138.285 87.4273 138.592 87.5512C138.9 87.6747 139.176 87.855 139.405 88.0814Z" fill="white"/>
<path d="M239.101 183.695C233.437 172.823 221.777 153.418 205.764 141.697L204.204 115.657C205.386 115.603 206.555 115.412 207.686 115.089C208.969 114.896 209.835 114.595 210.142 114.152C210.378 113.783 210.543 113.379 210.63 112.959C210.887 112.44 211.009 111.873 210.986 111.303C210.986 111.019 210.962 110.681 210.955 110.338C211.069 107.475 210.768 103.36 210.406 98.4749C210.034 91.4317 209.62 84.5589 209.611 84.4964V84.4822C209.611 84.3828 209.657 78.2115 209.967 71.3983C210.366 75.2635 212.097 77.6832 214.366 79.1686C216.822 81.0401 220.043 81.5485 222.806 81.5485C224.826 81.5445 226.837 81.2991 228.789 80.8186C232.077 79.87 234.782 78.3563 236.789 76.1979C238.631 74.5564 240.166 72.4633 240.587 69.8903C240.97 67.8088 240.848 65.6749 240.231 63.6423C239.688 61.2783 238.239 59.1758 236.151 57.7237C235.66 57.3397 235.118 57.0154 234.539 56.7581C233.566 56.2356 232.562 55.73 231.61 55.1507C230.326 54.3197 229.207 53.2885 228.304 52.1034C227.709 51.0903 227.347 49.9745 227.239 48.826C227.335 46.9073 227.307 44.9849 227.153 43.0693C227.153 42.6689 227.107 42.2684 227.061 41.8765C226.944 40.5048 226.836 39.5562 226.836 39.5562C225.577 36.5552 223.425 33.945 220.629 32.0274C220.457 31.8996 220.282 31.7775 220.11 31.6554C217.656 29.9979 214.807 28.9128 211.803 28.4916C211.526 28.4547 211.247 28.4263 210.977 28.4064C210.091 28.2726 209.195 28.1988 208.297 28.1849C207.15 27.7404 206.164 27.0014 205.457 26.0549C204.836 25.0103 204.396 23.8826 204.152 22.7122C203.805 20.798 203.775 18.5005 203.603 15.8508C203.629 13.19 202.881 10.5715 201.435 8.27079C201.429 8.2529 201.418 8.23643 201.405 8.22252C200.788 7.26373 200.04 6.38276 199.179 5.60119C196.701 2.88615 193.251 1.18784 188.959 2.179C188.919 2.179 188.879 2.20171 188.833 2.21591C188.655 2.21591 188.48 2.21591 188.302 2.24431C188.297 2.24289 188.291 2.24289 188.287 2.24431C186.607 2.37353 184.979 2.84696 183.522 3.63024C182.985 3.91793 182.479 4.25049 182.008 4.62424C179.169 6.89624 177.538 10.4093 177.096 13.8883C177.075 14.0303 177.066 14.1723 177.06 14.3143C176.562 14.869 176.268 15.5548 176.218 16.2739C176.17 16.9731 176.341 17.6706 176.712 18.2815C177.083 18.8924 177.638 19.3908 178.309 19.716V19.8949C178.357 21.1232 178.647 22.3333 179.166 23.4648C180.037 25.379 181.597 27.5572 184.237 27.9066C184.332 27.9066 184.424 27.9208 184.507 27.935L186.438 31.1214L186.902 32.9703L187.976 37.2558L188.345 37.0627C188.772 36.8412 189.195 36.6225 189.634 36.4067L189.914 36.8781C188.264 37.7506 186.689 38.7377 185.201 39.8317C181.404 42.4814 176.74 46.5313 173.458 52.0721C171.527 55.1734 170.161 58.5445 169.738 62.1229C169.735 62.1706 169.73 62.2177 169.722 62.2649C169.667 62.5858 169.621 62.9067 169.584 63.2362V61.6713C169.517 61.6713 169.452 61.6429 169.385 61.6372V61.6088C169.148 61.577 168.913 61.5336 168.681 61.4782L150.986 51.7313C150.192 51.0724 149.617 50.217 149.331 49.2662C148.841 47.433 147.732 45.7917 146.166 44.5802C144.829 43.6171 143.254 42.977 141.583 42.7172C141.481 42.6944 141.374 42.6802 141.276 42.666C141.343 42.5291 141.378 42.3806 141.379 42.2301C141.379 42.0796 141.345 41.9308 141.279 41.7936C141.212 41.6561 141.115 41.5334 140.993 41.4338C140.871 41.3341 140.728 41.2594 140.573 41.2148L127.494 37.395C127.221 37.3146 126.926 37.3317 126.666 37.4424C126.405 37.5535 126.2 37.7503 126.088 37.9942L123.077 44.5859C123.015 44.7222 122.985 44.8687 122.989 45.0164C122.992 45.1638 123.028 45.3092 123.096 45.443C123.164 45.5767 123.261 45.6957 123.381 45.7926C123.502 45.8897 123.642 45.9624 123.795 46.0059L124.136 46.1053V46.1337L131.866 48.3517L132.007 48.3943C132.007 48.5363 132.007 48.6783 132.023 48.8203C132.044 49.4988 132.121 50.1747 132.253 50.8424C132.308 51.1264 132.376 51.4104 132.452 51.6944C132.498 51.8506 132.538 52.0011 132.6 52.1516L132.624 52.2312C132.67 52.3646 132.716 52.5152 132.778 52.643C132.793 52.6961 132.811 52.748 132.833 52.7992C132.838 52.8009 132.844 52.8009 132.848 52.7992C133.04 53.2584 133.281 53.6989 133.567 54.1141C134.241 55.0882 135.226 55.8445 136.385 56.2782C137.481 56.6758 138.654 56.5991 139.762 57.0052C140.615 57.3352 141.397 57.8047 142.071 58.3911L142.488 58.8114C142.264 59.121 140.25 61.9979 141.702 62.9039L141.647 62.9266L143.115 63.7786L161.12 74.7779C161.298 74.9057 161.482 75.0278 161.66 75.1471L160.365 76.4677C156.791 77.6378 152.573 78.9158 149.23 79.8019C147.225 80.2733 145.202 80.688 143.164 81.0231C140.035 81.5229 136.846 81.5456 133.736 82.037C131.473 82.3806 129.557 84.3317 129.131 86.5156C128.775 88.2935 128.689 90.2076 130.813 91.1221C133.244 92.1672 134.457 88.9665 135.931 87.8305C138.203 86.0527 140.462 88.1742 142.826 89.3812C143.041 90.5513 143.412 91.6788 143.698 92.829C143.773 93.2368 143.944 93.6244 144.198 93.965C144.631 94.479 145.085 94.533 145.488 94.3427L145.386 94.4222C146.16 94.2328 146.94 94.0436 147.726 93.8542C148.462 93.7483 149.189 93.5858 149.896 93.3685C155.17 92.2098 160.792 91.1306 166.413 89.8242H166.434C166.698 89.7617 166.968 89.6964 167.229 89.6396C167.317 89.6371 167.405 89.6504 167.487 89.6791C167.569 89.7078 167.644 89.7513 167.708 89.8069C167.772 89.8629 167.823 89.9296 167.859 90.0037C167.895 90.0779 167.915 90.1577 167.917 90.2389C167.886 90.6109 167.846 90.9886 167.81 91.3749C167.401 93.0391 166.729 97.532 165.968 101.159C165.55 102.766 165.117 104.266 164.7 105.595C164.021 107.015 163.358 108.415 163.567 109.571C163.59 110.086 163.805 110.578 164.178 110.963C164.549 111.347 165.054 111.6 165.605 111.678L166.575 111.814C167.242 111.962 168.368 112.141 169.781 112.328C169.974 113.598 170.183 114.884 170.413 116.134L170.468 116.449C170.631 117.276 170.8 118.119 170.969 118.954V118.977V119.005L171.107 119.69L171.254 120.428L170.134 129.613L169.799 132.416L161.277 201.936L152.312 204.143L145.595 205.801C145.35 205.85 145.117 205.939 144.907 206.065C144.595 206.246 144.339 206.497 144.162 206.796C143.985 207.094 143.894 207.429 143.897 207.769C143.898 208.103 143.991 208.43 144.168 208.721C144.264 208.893 144.386 209.051 144.53 209.192C144.827 209.464 145.202 209.65 145.61 209.729C145.762 209.762 145.918 209.778 146.074 209.777H172.255L174.404 201.942L187.237 154.968L187.909 155.536C187.909 155.536 187.909 155.559 187.933 155.565V155.579L207.612 172.886L207.845 173.076L208.152 173.36L212.251 176.958L212.558 177.222L212.681 177.336C227.985 191.013 228.531 192.8 228.19 192.987H227.997L220.936 206.54C220.716 206.965 220.663 207.449 220.787 207.907C220.911 208.364 221.204 208.768 221.614 209.047L222.109 209.383C222.553 209.68 223.102 209.811 223.646 209.749C224.19 209.688 224.689 209.44 225.044 209.053L242.969 189.67C242.969 189.67 241.64 188.537 239.101 183.695ZM146.028 93.9167C146.121 93.8125 146.206 93.7023 146.283 93.5872C146.286 93.623 146.3 93.6574 146.323 93.6866L146.028 93.9167ZM161.221 76.1837C161.323 76.1411 161.421 76.1042 161.528 76.0673L162.588 75.6839L162.634 75.7038C162.179 75.86 161.706 76.0247 161.221 76.1837ZM168.408 61.4157C167.492 61.1502 166.647 60.7066 165.931 60.115L164.951 59.5726L168.58 61.4441C168.519 61.447 168.464 61.4469 168.408 61.4328V61.4157Z" fill="white"/>
<path d="M163.574 75.8748L163.04 75.6902C163.002 75.6714 162.964 75.6504 162.929 75.6277C160.139 73.9578 157.959 71.6006 156.095 69.0957C154.131 66.4516 147.389 63.7309 145.209 61.226C143.812 59.6413 142.351 57.818 140.211 57.0285C139.109 56.6281 137.93 56.7048 136.834 56.3015C135.674 55.8704 134.689 55.1132 134.019 54.1374C133.728 53.7213 133.484 53.2789 133.291 52.8168C133.268 52.764 133.248 52.71 133.233 52.6549C133.161 52.4945 133.103 52.3292 133.058 52.1608C133 52.0074 132.957 51.8597 132.914 51.7035C132.83 51.4232 132.763 51.1386 132.714 50.8515C132.6 50.2094 132.527 49.5616 132.496 48.9118V48.8806C132.472 48.2217 132.481 47.5742 132.515 46.9408V46.9238H132.481L129.346 45.9042C128.914 45.7719 128.528 45.5339 128.23 45.2155C127.931 44.8972 127.732 44.5098 127.652 44.0952C127.609 43.864 127.617 43.6271 127.676 43.3994C127.748 43.098 127.89 42.8149 128.092 42.5698C128.294 42.3244 128.551 42.1231 128.846 41.9794C129.118 41.8456 129.418 41.7655 129.725 41.7442C130.033 41.7226 130.342 41.7601 130.633 41.8544L136.942 43.973L138.237 44.4047L138.271 44.4218C138.271 44.4218 138.271 42.6439 140.113 42.6808C141.817 42.7206 147.991 43.1835 149.82 49.4287C150.106 50.3781 150.68 51.2318 151.475 51.8881L166.389 60.1497C167.403 60.9997 168.675 61.5401 170.033 61.6975V63.4498C170.031 63.4512 170.029 63.4532 170.029 63.4554C170.027 63.4577 170.027 63.46 170.027 63.4625C170.027 63.4648 170.027 63.4671 170.029 63.4694C170.029 63.4716 170.031 63.4736 170.033 63.4753V64.7505L171.218 72.4327L172.053 77.8031C170.964 77.8852 169.867 77.8489 168.787 77.6952L168.078 77.4481H168.059L163.574 75.8748Z" fill="white"/>
<path d="M169.838 63.359V63.3817C169.485 66.2587 169.135 69.5985 168.859 73.2933C166.869 74.1453 164.84 74.8837 162.845 75.6193C162.807 75.6006 162.769 75.5798 162.734 75.5568C161.378 74.7329 160.133 73.7625 159.026 72.6657L142.098 62.9472C143.145 62.457 144.078 61.7817 144.845 60.9592L144.897 60.9109C148.087 57.7415 150.853 52.3909 151.197 51.7207L151.271 51.7917L166.185 60.0533C167.199 60.9027 168.471 61.4423 169.829 61.5982L169.838 63.359Z" fill="#2E2E2E"/>
<path d="M139.811 47.0566L139.47 47.9086L139.145 48.735L138.967 49.2036L138.942 49.2746L138.909 49.3598C138.828 49.5728 138.66 49.7478 138.441 49.8463C138.222 49.9446 137.97 49.9588 137.739 49.8852L132.342 48.3516H132.317L124.562 46.1478L126.576 41.7429L127.464 39.8032C127.577 39.5593 127.784 39.363 128.045 39.2528C128.306 39.1423 128.603 39.1262 128.876 39.2068L139.563 42.3308C139.216 42.2578 138.864 42.2112 138.51 42.1917C138.258 42.1777 138.006 42.2158 137.771 42.3027C137.538 42.3896 137.327 42.5234 137.156 42.6943C136.993 42.865 136.876 43.0686 136.814 43.2885C136.752 43.5083 136.745 43.7386 136.796 43.961C136.956 44.5318 137.274 45.0544 137.717 45.4775C137.76 45.523 137.803 45.5627 137.853 45.6082C138.249 46.0154 138.709 46.3665 139.216 46.6505C139.216 46.6505 139.231 46.6505 139.249 46.6732C139.427 46.8129 139.615 46.941 139.811 47.0566Z" fill="#3FBDF1"/>
<path d="M132.461 48.3516C132.461 48.5049 132.461 48.6696 132.479 48.823C132.501 49.5026 132.579 50.1794 132.713 50.8479C132.762 51.135 132.828 51.4196 132.912 51.6999C132.955 51.8533 132.995 52.001 133.053 52.1543C133.112 52.3077 133.173 52.4951 133.247 52.6655C133.27 52.7286 133.298 52.7902 133.33 52.8501" stroke="black" stroke-width="3.7" stroke-miterlimit="10"/>
<path d="M142.264 47.6277C141.957 47.5823 141.65 47.5283 141.343 47.4573C141.036 47.3863 140.809 47.3097 140.551 47.2188C140.14 47.0705 139.745 46.8862 139.372 46.6678C139.372 46.6678 139.348 46.6678 139.339 46.6451C138.778 46.3282 138.273 45.9323 137.844 45.4722C137.399 45.0493 137.082 44.5265 136.923 43.9556C136.866 43.7332 136.87 43.5018 136.932 43.2808C136.995 43.0602 137.115 42.8568 137.282 42.689C137.454 42.518 137.664 42.3845 137.898 42.2976C138.132 42.2107 138.384 42.1727 138.636 42.1863C139.108 42.2207 139.577 42.2883 140.039 42.3879C140.699 42.4959 141.359 42.5953 142.013 42.7202C143.684 42.9838 145.259 43.6233 146.599 44.5833C148.162 45.7959 149.27 47.4355 149.764 49.2664C150.047 50.2167 150.618 51.0721 151.41 51.7315L170.023 61.9839" stroke="black" stroke-width="3.7" stroke-miterlimit="10"/>
<path d="M132.48 48.8203C132.48 48.8203 133.076 51.9187 137.733 51.8335C138.094 51.8213 138.442 51.7072 138.731 51.5067C139.02 51.3059 139.235 51.0281 139.348 50.7109C139.461 50.3934 139.466 50.0517 139.363 49.7317C139.26 49.4113 139.053 49.1282 138.771 48.9197L138.71 48.8771" stroke="black" stroke-width="3.7" stroke-miterlimit="10"/>
<path d="M133.23 52.6405C133.23 52.6405 135.511 54.8358 137.786 53.8872C139.797 53.0352 138.422 51.3682 138.422 51.3682" stroke="black" stroke-width="3.7" stroke-miterlimit="10"/>
<path d="M139.451 48.7766L139.285 48.7324" stroke="black" stroke-width="3.7" stroke-miterlimit="10"/>
<path d="M115.372 168.791C114.404 168.919 113.423 168.945 112.449 168.868L110.914 168.754L115.372 168.791Z" fill="#D7E8F0"/>
<path d="M132.625 104.599L126.9 157.707C126.6 160.482 125.299 163.083 123.208 165.092C121.117 167.101 118.356 168.401 115.369 168.783C114.401 168.911 113.42 168.937 112.446 168.859L110.911 168.746L40.8632 163.512C38.8333 163.365 36.867 162.789 35.1162 161.827C34.2694 160.181 33.832 158.38 33.836 156.556V155.321L98.1924 160.149L99.7274 160.265C100.701 160.34 101.682 160.314 102.65 160.189C105.636 159.805 108.396 158.505 110.487 156.496C112.578 154.488 113.879 151.887 114.181 149.113L118.786 106.47L132.625 104.599Z" fill="#3FBDF1"/>
<path d="M118.778 106.439L114.173 149.082C113.871 151.857 112.571 154.457 110.479 156.466C108.388 158.474 105.628 159.775 102.642 160.158C101.674 160.284 100.694 160.309 99.7195 160.235L98.1845 160.118L33.8281 155.29V128.506C33.8297 125.514 34.996 122.623 37.1133 120.362C39.231 118.1 42.1583 116.62 45.359 116.192L118.778 106.439Z" fill="#D7E8F0"/>
<path d="M120.711 174.219C119.742 174.347 118.76 174.372 117.785 174.295L116.25 174.182L120.711 174.219Z" fill="#D7E8F0"/>
<path d="M115.41 168.79L122.274 182.326C122.924 183.609 123.214 185.024 123.116 186.439C123.018 187.854 122.536 189.223 121.715 190.42C120.892 191.617 119.757 192.602 118.415 193.285C117.072 193.968 115.564 194.327 114.031 194.328H109.119C108.929 194.327 108.741 194.362 108.565 194.429C108.389 194.496 108.23 194.594 108.095 194.718C107.96 194.842 107.854 194.99 107.781 195.153C107.708 195.315 107.67 195.489 107.67 195.665V202.265C107.67 202.854 107.418 203.418 106.968 203.834C106.518 204.25 105.908 204.483 105.273 204.483C104.637 204.483 104.027 204.25 103.577 203.834C103.128 203.418 102.875 202.854 102.875 202.265V195.662C102.875 195.486 102.838 195.312 102.765 195.149C102.693 194.987 102.586 194.839 102.451 194.715C102.316 194.59 102.157 194.492 101.981 194.425C101.805 194.358 101.616 194.324 101.426 194.325H47.2281C47.0381 194.324 46.8499 194.359 46.6743 194.426C46.4987 194.493 46.339 194.591 46.2049 194.716C46.0704 194.84 45.9639 194.988 45.8914 195.15C45.819 195.312 45.7818 195.487 45.7822 195.662V202.263C45.76 202.837 45.4976 203.382 45.05 203.781C44.6023 204.181 44.0049 204.404 43.3829 204.404C42.761 204.404 42.1635 204.181 41.7159 203.781C41.2686 203.382 41.0058 202.837 40.9837 202.263V195.662C40.984 195.487 40.9469 195.312 40.8744 195.15C40.802 194.988 40.6955 194.84 40.561 194.716C40.4268 194.591 40.2672 194.493 40.0916 194.426C39.916 194.359 39.7278 194.324 39.5378 194.325H31.1137C30.6065 194.306 30.1267 194.107 29.7749 193.768C29.423 193.43 29.2266 192.978 29.2266 192.509C29.2266 192.039 29.423 191.588 29.7749 191.249C30.1267 190.91 30.6065 190.711 31.1137 190.692H112.26C113.283 190.691 114.289 190.452 115.186 189.997C116.083 189.541 116.842 188.884 117.392 188.087C117.942 187.289 118.267 186.376 118.336 185.432C118.405 184.488 118.215 183.542 117.786 182.684L110.808 168.768" fill="#2E2E2E"/>
<path d="M112.443 168.868L40.8598 163.515C37.493 163.264 34.352 161.849 32.0618 159.552C29.7716 157.256 28.4997 154.245 28.5 151.121V123.079C28.5009 120.087 29.6672 117.197 31.7849 114.936C33.9029 112.675 36.8301 111.196 40.0309 110.77L127.63 99.1262L136.266 88.0644C136.497 87.8383 136.776 87.6586 137.086 87.5362C137.395 87.4138 137.729 87.3518 138.065 87.3535C138.402 87.3555 138.734 87.4214 139.042 87.5469C139.35 87.6728 139.627 87.8557 139.855 88.0843C140.248 88.4827 140.475 88.9976 140.495 89.5367C140.515 90.0757 140.328 90.6039 139.966 91.0265L132.862 102.327L126.903 157.707C126.553 160.948 124.842 163.934 122.138 166.021C119.434 168.108 115.953 169.131 112.443 168.868Z" stroke="black" stroke-width="3.7" stroke-miterlimit="10"/>
<path d="M112.757 202.868C112.76 204.139 112.384 205.387 111.669 206.474C110.955 207.56 109.931 208.443 108.709 209.026C107.487 209.609 106.115 209.868 104.744 209.776C103.373 209.684 102.056 209.244 100.938 208.504C99.82 207.765 98.9441 206.754 98.4068 205.583C97.8696 204.413 97.6918 203.128 97.8929 201.87C98.094 200.612 98.6666 199.43 99.547 198.454C100.428 197.477 101.582 196.744 102.884 196.336V202.266C102.884 202.854 103.137 203.418 103.586 203.834C104.036 204.25 104.646 204.484 105.282 204.484C105.918 204.484 106.528 204.25 106.977 203.834C107.427 203.418 107.679 202.854 107.679 202.266V196.333C109.16 196.793 110.446 197.671 111.357 198.843C112.268 200.016 112.758 201.424 112.757 202.868Z" stroke="black" stroke-width="3.7" stroke-miterlimit="10"/>
<path d="M50.8566 202.868C50.8591 204.139 50.4827 205.386 49.7683 206.472C49.0539 207.558 48.0298 208.441 46.8079 209.023C45.5864 209.605 44.2147 209.864 42.8442 209.772C41.4735 209.68 40.1571 209.239 39.0396 208.499C37.9221 207.759 37.0472 206.748 36.5105 205.578C35.9742 204.408 35.7971 203.123 35.9991 201.866C36.2011 200.608 36.7739 199.426 37.655 198.451C38.5361 197.475 39.6911 196.743 40.9927 196.336V202.266C40.9937 202.854 41.2469 203.418 41.697 203.834C42.1471 204.25 42.7574 204.484 43.3935 204.484C44.0293 204.484 44.6393 204.25 45.089 203.834C45.5385 203.418 45.7911 202.854 45.7911 202.266V196.333C47.2697 196.793 48.5541 197.672 49.4632 198.845C50.3722 200.017 50.8597 201.425 50.8566 202.868Z" stroke="black" stroke-width="3.7" stroke-miterlimit="10"/>
<path d="M115.41 168.79L122.274 182.326C122.924 183.609 123.214 185.024 123.116 186.439C123.018 187.854 122.536 189.223 121.715 190.42C120.892 191.617 119.757 192.602 118.415 193.285C117.072 193.968 115.564 194.327 114.031 194.328H109.119C108.929 194.327 108.741 194.362 108.565 194.429C108.389 194.496 108.23 194.594 108.095 194.718C107.96 194.842 107.854 194.99 107.781 195.153C107.708 195.315 107.67 195.489 107.67 195.665V202.265C107.67 202.854 107.418 203.418 106.968 203.834C106.518 204.25 105.908 204.483 105.273 204.483C104.637 204.483 104.027 204.25 103.577 203.834C103.128 203.418 102.875 202.854 102.875 202.265V195.662C102.875 195.486 102.838 195.312 102.765 195.149C102.693 194.987 102.586 194.839 102.451 194.715C102.316 194.59 102.157 194.492 101.981 194.425C101.805 194.358 101.616 194.324 101.426 194.325H47.2281C47.0381 194.324 46.8499 194.359 46.6743 194.426C46.4987 194.493 46.339 194.591 46.2049 194.716C46.0704 194.84 45.9639 194.988 45.8914 195.15C45.819 195.312 45.7818 195.487 45.7822 195.662V202.263C45.76 202.837 45.4976 203.382 45.05 203.781C44.6023 204.181 44.0049 204.404 43.3829 204.404C42.761 204.404 42.1635 204.181 41.7159 203.781C41.2686 203.382 41.0058 202.837 40.9837 202.263V195.662C40.984 195.487 40.9469 195.312 40.8744 195.15C40.802 194.988 40.6955 194.84 40.561 194.716C40.4268 194.591 40.2672 194.493 40.0916 194.426C39.916 194.359 39.7278 194.324 39.5378 194.325H31.1137C30.6065 194.306 30.1267 194.107 29.7749 193.768C29.423 193.43 29.2266 192.978 29.2266 192.509C29.2266 192.039 29.423 191.588 29.7749 191.249C30.1267 190.91 30.6065 190.711 31.1137 190.692H112.26C113.283 190.691 114.289 190.452 115.186 189.997C116.083 189.541 116.842 188.884 117.392 188.087C117.942 187.289 118.267 186.376 118.336 185.432C118.405 184.488 118.215 183.542 117.786 182.684L110.808 168.768" stroke="black" stroke-width="3.7" stroke-miterlimit="10"/>
<path d="M139.984 46.9781L139.272 48.7332L139.078 49.2046L139.02 49.3608C138.94 49.5696 138.775 49.7414 138.559 49.8397C138.344 49.9376 138.097 49.9544 137.869 49.8862L132.456 48.3526L124.229 46.0125C124.076 45.9687 123.935 45.896 123.815 45.7992C123.695 45.7023 123.597 45.5831 123.53 45.4493C123.462 45.3158 123.426 45.1704 123.422 45.0227C123.419 44.8753 123.449 44.7285 123.51 44.5925L126.519 37.998C126.632 37.7543 126.84 37.5584 127.101 37.4482C127.362 37.338 127.658 37.3215 127.931 37.4016L141.006 41.2214C141.162 41.2651 141.307 41.3393 141.43 41.4384C141.553 41.5375 141.651 41.6599 141.72 41.7968C141.788 41.9339 141.824 42.083 141.825 42.2339C141.826 42.3849 141.793 42.5343 141.728 42.6726" stroke="black" stroke-width="3.7" stroke-miterlimit="10"/>
<path d="M137.279 43.4134L125.641 39.9287" stroke="black" stroke-width="3.7" stroke-miterlimit="10"/>
<path d="M151.425 51.7314C151.425 51.7314 146.949 60.7371 142.611 62.8756C142.579 62.8904 142.552 62.9122 142.533 62.9398C142.513 62.9671 142.502 62.9986 142.5 63.0312C142.498 63.0639 142.506 63.0963 142.522 63.1255C142.538 63.1545 142.563 63.1792 142.592 63.1965L162.931 75.6158" stroke="black" stroke-width="3.7" stroke-miterlimit="10"/>
<path d="M142.957 58.8037C142.957 58.8037 140.445 62.189 142.3 63.0183" stroke="black" stroke-width="3.7" stroke-miterlimit="10"/>
<path d="M144.35 80.8991C144.35 80.8991 143.322 80.9417 145.385 83.3444C147.448 85.747 148.148 90.3194 146.745 93.5882C146.745 93.5882 146.683 94.4402 150.355 93.3781C154.027 92.3159 166.905 89.8309 166.905 89.8309C166.905 89.8309 168.916 88.8511 168.293 91.3333C167.67 93.8154 166.451 102.946 165.177 105.579C163.903 108.211 162.663 110.821 167.047 111.81C171.431 112.798 195.346 114.877 195.346 114.877C195.346 114.877 211.617 118.214 211.445 111.301C211.273 104.389 210.079 84.4889 210.079 84.4889C210.079 84.4889 210.177 69.1273 211.273 60.045C211.273 60.045 214.134 36.97 205.627 34.8372C197.12 32.7043 194.231 34.9735 192.073 36.0498C189.915 37.1262 170.89 46.325 169.853 65.3018C169.853 65.3018 169.782 72.6347 168.176 73.7281C166.571 74.8215 147.782 80.8338 144.35 80.8991Z" fill="#2E2E2E"/>
<path d="M174.848 201.937L172.699 209.772H146.533C145.959 209.768 145.408 209.559 144.998 209.187C144.724 208.932 144.528 208.614 144.431 208.265C144.335 207.916 144.341 207.55 144.45 207.204C144.558 206.859 144.765 206.546 145.048 206.3C145.331 206.053 145.681 205.881 146.06 205.802L161.742 201.937C161.742 201.937 170.82 204.887 174.848 201.937Z" fill="#2E2E2E"/>
<path d="M205.251 115.31C205.051 115.31 204.842 115.327 204.637 115.327C203.818 120.218 202.907 125.092 201.905 129.951C190.183 127.522 173.989 131.828 173.989 131.828L174.33 133.532C171.659 133.665 170.839 132.754 170.839 132.754L170.25 132.416L171.72 120.411L171.438 118.991V118.946C171.263 118.111 171.097 117.267 170.937 116.432L170.879 116.125C170.646 114.833 170.428 113.535 170.234 112.243L170.428 112.269C170.495 112.269 170.56 112.291 170.637 112.297L170.802 112.323C170.947 112.337 171.088 112.36 171.229 112.377C171.536 112.414 171.932 112.468 172.374 112.53C172.549 112.53 172.733 112.57 172.927 112.601C179.583 113.456 196.922 115.543 205.251 115.31Z" fill="#3FBDF1"/>
<path d="M187.719 154.816L187.679 154.964L174.843 201.937L172.694 209.773H146.529C145.954 209.769 145.404 209.559 144.994 209.188C144.719 208.933 144.524 208.614 144.427 208.265C144.331 207.916 144.337 207.55 144.446 207.204C144.554 206.859 144.761 206.546 145.044 206.299C145.327 206.052 145.676 205.88 146.056 205.8L161.737 201.937L170.247 132.417L171.718 120.412" stroke="black" stroke-width="3.7" stroke-miterlimit="10"/>
<path d="M147.413 90.0347C146.492 90.0745 145.977 90.083 145.977 90.083C145.056 90.1426 144.162 89.8189 143.278 89.3787C140.914 88.1717 138.649 86.0559 136.377 87.8337C134.906 88.9697 133.694 92.1676 131.262 91.1253C129.141 90.2136 129.224 88.2853 129.574 86.5188C130.01 84.332 131.922 82.3838 134.179 82.0344C137.285 81.5488 140.478 81.5261 143.603 81.0234C149.899 79.9584 156.059 78.3007 161.99 76.0761C168.575 73.6479 175.759 71.1459 180.622 66.1588C186.396 60.2545 190.065 52.5268 192.07 44.8418" stroke="black" stroke-width="3.7" stroke-miterlimit="10"/>
<path d="M179.93 13.0902C179.93 13.0902 180.504 4.24931 189.425 2.17895C198.347 0.108593 203.67 9.69644 204.072 15.8507C204.474 22.005 204.072 26.2508 208.76 28.1877C208.76 28.1877 222.308 28.0343 227.3 39.5477C227.3 39.5477 227.975 45.1908 227.699 48.8231C227.423 52.4555 232.322 55.6391 234.99 56.7581C237.658 57.877 242.3 62.4381 241.038 69.8874C239.776 77.3367 229.243 80.81 229.243 80.81C229.243 80.81 220.242 83.2752 214.814 79.16C209.052 74.7949 210.682 66.8117 210.682 66.8117C210.682 66.8117 213.792 40.8484 208.131 36.5827C205.015 34.234 203.599 34.447 201.398 33.2088C199.08 31.9052 198.251 31.5048 197.475 30.5875C195.964 28.7898 193.287 26.0747 195.224 19.6705C197.162 13.2663 195.224 16.4954 193.382 15.5923C193.382 15.5923 191.123 12.366 187.712 14.6466C184.301 16.9271 185.133 11.3635 185.133 11.3635L183.635 13.2266C183.635 13.2266 181.293 13.6611 179.93 13.0902Z" fill="#3FBDF1"/>
<path d="M177.831 16.1475C177.748 12.021 179.412 7.38607 182.878 4.63695C183.349 4.26207 183.854 3.92667 184.389 3.63443C188.134 1.58679 193.338 1.77139 197.065 3.76223C199.047 4.85137 200.7 6.38469 201.872 8.22103L201.903 8.27215C203.347 10.5734 204.097 13.1913 204.073 15.8521C204.092 19.3112 204.113 24.0058 206.514 26.877C208.031 28.6946 210.048 28.1834 212.267 28.493C215.273 28.9107 218.124 29.9973 220.575 31.6596C223.884 33.9117 226.641 37.2714 227.402 41.0656C228.136 44.7179 226.702 48.8359 228.83 52.2126C230.389 54.6806 233.355 55.8081 235.866 57.248C240.907 60.1732 241.945 65.8418 240.349 70.8288C238.685 76.0289 234.773 79.2239 229.244 80.8171C229.244 80.8171 210.56 85.0771 210.33 69.9285" stroke="black" stroke-width="3.7" stroke-miterlimit="10"/>
<path d="M184.873 11.1035C184.68 12.319 183.881 13.4408 182.46 13.776C180.857 14.1537 180.004 15.5964 179.556 17.0476C178.915 19.1768 179.08 21.4445 180.026 23.4746C180.9 25.383 182.463 27.5642 185.103 27.9135C189.935 28.5496 192.339 26.6667 192.339 26.6667" stroke="black" stroke-width="3.7" stroke-miterlimit="10"/>
<path d="M188.894 17.5979C189.354 17.5979 189.726 17.2534 189.726 16.8282C189.726 16.4031 189.354 16.0586 188.894 16.0586C188.435 16.0586 188.062 16.4031 188.062 16.8282C188.062 17.2534 188.435 17.5979 188.894 17.5979Z" fill="black"/>
<path d="M181.602 17.093C182.061 17.093 182.433 16.7482 182.433 16.3233C182.433 15.8982 182.061 15.5537 181.602 15.5537C181.142 15.5537 180.77 15.8982 180.77 16.3233C180.77 16.7482 181.142 17.093 181.602 17.093Z" fill="black"/>
<path d="M184.873 11.1035C184.69 11.834 184.718 12.5959 184.956 13.313C184.992 13.4292 185.04 13.5422 185.097 13.651C185.674 14.9034 187.016 15.9031 189.395 15.7782C194.562 15.514 196.404 15.2102 195.983 17.4055C195.809 18.1822 195.558 18.9428 195.234 19.6775C194.666 21.0719 194.27 23.466 194.853 26.0732C195.526 29.1205 197.122 32.2331 202.504 33.9655" stroke="black" stroke-width="3.7" stroke-miterlimit="10"/>
<path d="M185.324 17.0156C185.324 17.0156 184.453 19.9635 184.542 20.3981C184.631 20.8326 185.745 20.4946 185.745 20.4946" stroke="black" stroke-width="3.7" stroke-miterlimit="10"/>
<path d="M185.938 23.1962C187.605 24.0283 189.539 23.5029 190.294 22.1113" stroke="black" stroke-width="3.7" stroke-miterlimit="10"/>
<path d="M192.985 19.8884C194.418 18.4832 194.319 16.2424 192.764 14.8837C191.208 13.5248 188.784 13.5626 187.35 14.9675C185.916 16.3728 186.015 18.6135 187.571 19.9722C189.127 21.3311 191.551 21.2933 192.985 19.8884Z" stroke="black" stroke-width="3.7" stroke-miterlimit="10"/>
<path d="M183.305 19.066C184.739 17.6607 184.64 15.4203 183.084 14.0613C181.528 12.7027 179.104 12.7402 177.67 14.1454C176.236 15.5506 176.335 17.7911 177.891 19.15C179.447 20.5087 181.871 20.4712 183.305 19.066Z" stroke="black" stroke-width="3.7" stroke-miterlimit="10"/>
<path d="M180.414 14.1534C180.497 14.1491 180.58 14.1491 180.663 14.1534C181.371 14.2139 182.026 14.5274 182.49 15.0275C182.953 15.5274 183.187 16.1743 183.143 16.8315C183.104 17.4347 182.816 18.0007 182.338 18.4131C181.861 18.8252 181.23 19.0521 180.577 19.0467C180.494 19.0467 180.411 19.0467 180.328 19.0467C179.62 18.9845 178.966 18.6704 178.503 18.1708C178.04 17.6713 177.806 17.0252 177.848 16.3686C177.887 15.7654 178.175 15.1991 178.653 14.787C179.131 14.3746 179.761 14.1477 180.414 14.1534ZM180.414 13.628C179.618 13.624 178.85 13.902 178.267 14.4044C177.685 14.9068 177.331 15.5964 177.28 16.3317C177.227 17.1254 177.51 17.907 178.07 18.5111C178.629 19.1154 179.42 19.4946 180.276 19.5693C180.377 19.5693 180.479 19.5834 180.583 19.5834C181.38 19.5863 182.148 19.308 182.73 18.805C183.313 18.302 183.666 17.6125 183.717 16.8769C183.769 16.0831 183.485 15.3019 182.927 14.6978C182.368 14.094 181.577 13.7143 180.721 13.6393C180.62 13.6393 180.518 13.6393 180.414 13.6393V13.628Z" fill="white"/>
<path d="M186.337 17.101L184.305 16.9277" stroke="black" stroke-width="3.7" stroke-miterlimit="10"/>
<path d="M190.078 14.9005H190.333C191.063 14.9641 191.738 15.2873 192.215 15.8025C192.692 16.3174 192.934 16.9839 192.89 17.661C192.846 18.2806 192.548 18.8614 192.056 19.2837C191.564 19.7063 190.915 19.9386 190.244 19.933C190.158 19.933 190.075 19.933 189.989 19.933C189.259 19.8693 188.584 19.5459 188.107 19.0307C187.63 18.5158 187.388 17.8495 187.432 17.1725C187.475 16.5525 187.774 15.9712 188.266 15.5486C188.758 15.126 189.407 14.8939 190.078 14.9005ZM190.078 14.3751C189.26 14.3697 188.472 14.654 187.873 15.1691C187.274 15.6843 186.911 16.392 186.858 17.1469C186.804 17.96 187.095 18.7606 187.668 19.3797C188.241 19.9986 189.051 20.3874 189.928 20.464C190.032 20.464 190.134 20.4782 190.235 20.4782C191.051 20.4811 191.839 20.1957 192.435 19.6799C193.032 19.1645 193.394 18.4573 193.446 17.7036C193.504 16.889 193.215 16.0862 192.642 15.4662C192.068 14.8462 191.255 14.4589 190.376 14.3864C190.272 14.3864 190.17 14.3864 190.069 14.3864L190.078 14.3751Z" fill="white"/>
<path d="M182.901 18.7165C184.131 17.5109 184.045 15.5882 182.71 14.4224C181.375 13.2563 179.295 13.2884 178.065 14.4939C176.835 15.6995 176.92 17.6219 178.255 18.788C179.591 19.9541 181.67 19.922 182.901 18.7165Z" fill="#3FBDF1"/>
<path d="M192.595 19.5471C193.831 18.3359 193.746 16.4044 192.404 15.2329C191.063 14.0614 188.973 14.0938 187.737 15.305C186.501 16.5163 186.587 18.4478 187.928 19.6193C189.269 20.7908 191.359 20.7584 192.595 19.5471Z" fill="#3FBDF1"/>
<path d="M188.897 37.5001L187.767 32.9788L186.539 28.1025" stroke="black" stroke-width="3.7" stroke-miterlimit="10"/>
<path d="M243.43 189.683L225.508 209.066C225.153 209.452 224.653 209.7 224.109 209.761C223.565 209.821 223.017 209.69 222.573 209.392L222.081 209.06C221.669 208.782 221.375 208.38 221.25 207.922C221.125 207.465 221.177 206.981 221.397 206.555L228.439 192.997C228.439 192.997 239.645 193.295 239.553 183.688C242.092 188.541 243.43 189.683 243.43 189.683Z" fill="#2E2E2E"/>
<path d="M213.141 177.348L213.015 177.231L208.302 173.088L208.075 172.895L188.39 155.571V155.554L188.363 155.531L187.696 154.963L181.713 149.7C178.436 146.814 176.231 143.042 175.413 138.925L174.33 133.552L173.986 131.848L171.72 120.44L171.438 119.02V118.974C171.263 118.139 171.097 117.296 170.937 116.461L170.879 116.154" stroke="black" stroke-width="3.7" stroke-miterlimit="10"/>
<path d="M170.227 112.252C170.42 113.544 170.638 114.842 170.871 116.134L170.93 116.441C171.089 117.276 171.255 118.119 171.43 118.954V119" stroke="black" stroke-width="3.7" stroke-linejoin="round"/>
<path d="M188.344 155.543L188.368 155.565L188.387 155.581" stroke="black" stroke-width="3.7" stroke-linejoin="round"/>
<path d="M208.07 172.894L208.297 173.087C210 174.564 211.571 175.946 213.01 177.231L213.132 177.347C232.01 194.22 228.433 192.996 228.433 192.996L221.388 206.554C221.169 206.98 221.118 207.464 221.243 207.921C221.369 208.379 221.663 208.781 222.075 209.059L222.566 209.391C223.01 209.688 223.559 209.82 224.103 209.759C224.647 209.699 225.146 209.451 225.501 209.064L243.421 189.681C243.421 189.681 242.085 188.545 239.547 183.686C233.447 171.991 220.421 150.41 202.489 139.164C201.821 138.749 201.301 138.161 200.995 137.474C200.688 136.786 200.609 136.03 200.766 135.301C201.11 133.762 201.436 132.223 201.755 130.678C201.804 130.439 201.853 130.198 201.896 129.959C202.897 125.097 203.808 120.223 204.628 115.336" stroke="black" stroke-width="3.7" stroke-linejoin="round"/>
<path d="M169.051 73.3638C169.327 69.6718 169.665 66.3291 170.03 63.4238C170.079 62.9836 170.138 62.5491 170.187 62.1231C170.936 55.7927 174.647 50.0786 179.212 45.4466C183.725 40.8685 189.469 36.4182 195.987 34.6148C198.087 34.0028 200.297 33.7819 202.489 33.9645C203.994 34.132 205.432 34.6353 206.68 35.4313C207.928 36.2274 208.948 37.2924 209.652 38.534C210.525 40.1216 211.083 41.8415 211.297 43.6119C211.297 43.6347 211.297 43.6574 211.297 43.6829C211.681 46.5229 211.463 49.5021 211.497 52.3222C211.555 58.2067 211.012 64.0798 210.309 69.9302" stroke="black" stroke-width="3.7" stroke-linejoin="round"/>
<path d="M168.508 88.0805V88.0723" stroke="black" stroke-width="3.7" stroke-linejoin="round"/>
<path d="M143.616 81.0117C146.523 84.1584 148.334 88.7507 147.088 92.8574C146.781 93.8315 145.67 95.1521 144.66 93.9508C144.404 93.6108 144.233 93.2229 144.159 92.8148C143.874 91.6589 143.499 90.5229 143.281 89.35" stroke="black" stroke-width="3.7" stroke-miterlimit="10"/>
<path d="M145.844 94.4177C169.59 88.6127 203.216 86.6474 210.458 56.0209C211.406 51.9429 211.689 47.7568 211.299 43.6016" stroke="black" stroke-width="3.7" stroke-miterlimit="10"/>
<path d="M168.439 89.464C167.97 96.7912 165.489 104.8 164.12 108.776C164.013 109.084 163.979 109.41 164.022 109.732C164.064 110.053 164.182 110.362 164.366 110.638C164.55 110.913 164.797 111.149 165.089 111.327C165.38 111.506 165.711 111.624 166.057 111.673C167.178 111.835 168.596 112.028 170.226 112.241L170.42 112.266C170.487 112.266 170.552 112.289 170.628 112.295L170.794 112.32C170.938 112.335 171.08 112.357 171.221 112.374C171.589 112.428 171.973 112.474 172.366 112.528C172.541 112.528 172.725 112.567 172.919 112.599C182.436 113.848 196.613 115.481 204.635 115.319C204.844 115.319 205.052 115.319 205.249 115.302L205.863 115.28L206.458 115.248C208.65 115.101 210.142 114.754 210.569 114.144C213.332 110.278 208.205 88.0639 210.661 66.8008" stroke="black" stroke-width="3.7" stroke-miterlimit="10"/>
<path d="M232.302 209.775H7.50781" stroke="black" stroke-width="3.7" stroke-linejoin="round"/>
<path d="M17.9269 144.657C17.9269 144.657 -12.5121 177.684 17.9269 209.432" stroke="#CCDDE2" stroke-width="3.7" stroke-miterlimit="10"/>
</svg>
