<svg width="30" height="29" viewBox="0 0 30 29" fill="none" xmlns="http://www.w3.org/2000/svg">
<path d="M15 4L17.6942 12.2918H26.4127L19.3593 17.4164L22.0534 25.7082L15 20.5836L7.94658 25.7082L10.6407 17.4164L3.58732 12.2918H12.3058L15 4Z" fill="#F8C84E"/>
<path d="M15.4755 3.84549L15 2.38197L14.5245 3.84549L11.9426 11.7918H3.58732H2.04848L3.29343 12.6963L10.053 17.6074L7.47105 25.5537L6.99552 27.0172L8.24047 26.1127L15 21.2016L21.7595 26.1127L23.0045 27.0172L22.529 25.5537L19.947 17.6074L26.7066 12.6963L27.9515 11.7918H26.4127H18.0574L15.4755 3.84549Z" stroke="black" stroke-opacity="0.5"/>
</svg>
